<svg xmlns="http://www.w3.org/2000/svg" width="80.21" height="23.638" viewBox="0 0 80.21 23.638">
  <g id="reebok-logo" transform="translate(179.226 -307.703)">
    <path id="Union_1" data-name="Union 1" d="M0,.256l29.3.09c3.851,1.9,35.34,20.846,37.292,22.335C43.734,12.767,29.523,5.763,0,.256ZM21.372,21.773c1.266-1.745,5.54-6.332,13.209-9.739,2.126.771,4.218,1.566,6.3,2.388a25.647,25.647,0,0,0-7.516,7.388ZM3.1,21.7c4.03-5.179,9.98-9.351,20.683-13.2a1.165,1.165,0,0,1,.132.029c2.73.816,5.347,1.663,7.892,2.545C22.559,14.7,17.627,19.939,16.331,21.757ZM41.048,4.181C53.589,1.738,71.783.526,80,0,64.849,3.687,59.129,5.815,49.943,9.514Z" transform="translate(-179.134 308.202)" fill="#d1372b" stroke="rgba(0,0,0,0)" stroke-width="1"/>
  </g>
</svg>
